<svg xmlns="http://www.w3.org/2000/svg" xml:space="preserve" id="Layer_1" width="1160" height="1160" x="0" y="0" viewBox="0 0 1160 1160"><path d="M0 0h1160v1160H0z"/><defs transform="translate(80 80)"><linearGradient id="grad" gradientTransform="rotate(90)"><stop offset="5%" stop-color="#ffea8a"/><stop offset="95%" stop-color="#efb400"/></linearGradient><mask id="gmask"><g style="fill:#fff"><path d="M50 99.8C45.8 69.5 28.5 54-.3 49.8 28.7 46 45.4 30 50-.2c4.4 29.5 21 45.7 49.7 50-29 4.3-45.2 20.6-49.7 50" style="fill-rule:evenodd;clip-rule:evenodd" transform="translate(320)scale(.4)"/></g><g style="fill:#fff"><path d="M50 99.8C45.8 69.5 28.5 54-.3 49.8 28.7 46 45.4 30 50-.2c4.4 29.5 21 45.7 49.7 50-29 4.3-45.2 20.6-49.7 50" style="fill-rule:evenodd;clip-rule:evenodd" transform="translate(360)scale(.4)"/></g><g style="fill:#fff"><path d="M50 99.8C45.8 69.5 28.5 54-.3 49.8 28.7 46 45.4 30 50-.2c4.4 29.5 21 45.7 49.7 50-29 4.3-45.2 20.6-49.7 50" style="fill-rule:evenodd;clip-rule:evenodd" transform="translate(400)scale(.4)"/></g><g style="fill:#fff"><path d="M50 99.8C45.8 69.5 28.5 54-.3 49.8 28.7 46 45.4 30 50-.2c4.4 29.5 21 45.7 49.7 50-29 4.3-45.2 20.6-49.7 50" style="fill-rule:evenodd;clip-rule:evenodd" transform="translate(560)scale(.4)"/></g><g style="fill:#fff"><path d="M50 99.8C45.8 69.5 28.5 54-.3 49.8 28.7 46 45.4 30 50-.2c4.4 29.5 21 45.7 49.7 50-29 4.3-45.2 20.6-49.7 50" style="fill-rule:evenodd;clip-rule:evenodd" transform="matrix(.4 0 0 .4 320 40)"/></g><g style="fill:#fff"><path d="M50 99.8C45.8 69.5 28.5 54-.3 49.8 28.7 46 45.4 30 50-.2c4.4 29.5 21 45.7 49.7 50-29 4.3-45.2 20.6-49.7 50" style="fill-rule:evenodd;clip-rule:evenodd" transform="matrix(.4 0 0 .4 400 40)"/></g><g style="fill:#fff"><path d="M50 99.8C45.8 69.5 28.5 54-.3 49.8 28.7 46 45.4 30 50-.2c4.4 29.5 21 45.7 49.7 50-29 4.3-45.2 20.6-49.7 50" style="fill-rule:evenodd;clip-rule:evenodd" transform="matrix(.4 0 0 .4 440 40)"/></g><g style="fill:#fff"><path d="M50 99.8C45.8 69.5 28.5 54-.3 49.8 28.7 46 45.4 30 50-.2c4.4 29.5 21 45.7 49.7 50-29 4.3-45.2 20.6-49.7 50" style="fill-rule:evenodd;clip-rule:evenodd" transform="matrix(.4 0 0 .4 520 40)"/></g><g style="fill:#fff"><path d="M50 99.8C45.8 69.5 28.5 54-.3 49.8 28.7 46 45.4 30 50-.2c4.4 29.5 21 45.7 49.7 50-29 4.3-45.2 20.6-49.7 50" style="fill-rule:evenodd;clip-rule:evenodd" transform="matrix(.4 0 0 .4 320 80)"/></g><g style="fill:#fff"><path d="M50 99.8C45.8 69.5 28.5 54-.3 49.8 28.7 46 45.4 30 50-.2c4.4 29.5 21 45.7 49.7 50-29 4.3-45.2 20.6-49.7 50" style="fill-rule:evenodd;clip-rule:evenodd" transform="matrix(.4 0 0 .4 360 80)"/></g><g style="fill:#fff"><path d="M50 99.8C45.8 69.5 28.5 54-.3 49.8 28.7 46 45.4 30 50-.2c4.4 29.5 21 45.7 49.7 50-29 4.3-45.2 20.6-49.7 50" style="fill-rule:evenodd;clip-rule:evenodd" transform="matrix(.4 0 0 .4 520 80)"/></g><g style="fill:#fff"><path d="M50 99.8C45.8 69.5 28.5 54-.3 49.8 28.7 46 45.4 30 50-.2c4.4 29.5 21 45.7 49.7 50-29 4.3-45.2 20.6-49.7 50" style="fill-rule:evenodd;clip-rule:evenodd" transform="matrix(.4 0 0 .4 560 80)"/></g><g style="fill:#fff"><path d="M50 99.8C45.8 69.5 28.5 54-.3 49.8 28.7 46 45.4 30 50-.2c4.4 29.5 21 45.7 49.7 50-29 4.3-45.2 20.6-49.7 50" style="fill-rule:evenodd;clip-rule:evenodd" transform="matrix(.4 0 0 .4 360 120)"/></g><g style="fill:#fff"><path d="M50 99.8C45.8 69.5 28.5 54-.3 49.8 28.7 46 45.4 30 50-.2c4.4 29.5 21 45.7 49.7 50-29 4.3-45.2 20.6-49.7 50" style="fill-rule:evenodd;clip-rule:evenodd" transform="matrix(.4 0 0 .4 400 120)"/></g><g style="fill:#fff"><path d="M50 99.8C45.8 69.5 28.5 54-.3 49.8 28.7 46 45.4 30 50-.2c4.4 29.5 21 45.7 49.7 50-29 4.3-45.2 20.6-49.7 50" style="fill-rule:evenodd;clip-rule:evenodd" transform="matrix(.4 0 0 .4 520 120)"/></g><g style="fill:#fff"><path d="M50 99.8C45.8 69.5 28.5 54-.3 49.8 28.7 46 45.4 30 50-.2c4.4 29.5 21 45.7 49.7 50-29 4.3-45.2 20.6-49.7 50" style="fill-rule:evenodd;clip-rule:evenodd" transform="matrix(.4 0 0 .4 600 120)"/></g><g style="fill:#fff"><path d="M50 99.8C45.8 69.5 28.5 54-.3 49.8 28.7 46 45.4 30 50-.2c4.4 29.5 21 45.7 49.7 50-29 4.3-45.2 20.6-49.7 50" style="fill-rule:evenodd;clip-rule:evenodd" transform="matrix(.4 0 0 .4 640 120)"/></g><g style="fill:#fff"><path d="M50 99.8C45.8 69.5 28.5 54-.3 49.8 28.7 46 45.4 30 50-.2c4.4 29.5 21 45.7 49.7 50-29 4.3-45.2 20.6-49.7 50" style="fill-rule:evenodd;clip-rule:evenodd" transform="matrix(.4 0 0 .4 320 160)"/></g><g style="fill:#fff"><path d="M50 99.8C45.8 69.5 28.5 54-.3 49.8 28.7 46 45.4 30 50-.2c4.4 29.5 21 45.7 49.7 50-29 4.3-45.2 20.6-49.7 50" style="fill-rule:evenodd;clip-rule:evenodd" transform="matrix(.4 0 0 .4 400 160)"/></g><g style="fill:#fff"><path d="M50 99.8C45.8 69.5 28.5 54-.3 49.8 28.7 46 45.4 30 50-.2c4.4 29.5 21 45.7 49.7 50-29 4.3-45.2 20.6-49.7 50" style="fill-rule:evenodd;clip-rule:evenodd" transform="matrix(.4 0 0 .4 560 160)"/></g><g style="fill:#fff"><path d="M50 99.8C45.8 69.5 28.5 54-.3 49.8 28.7 46 45.4 30 50-.2c4.4 29.5 21 45.7 49.7 50-29 4.3-45.2 20.6-49.7 50" style="fill-rule:evenodd;clip-rule:evenodd" transform="matrix(.4 0 0 .4 360 200)"/></g><g style="fill:#fff"><path d="M50 99.8C45.8 69.5 28.5 54-.3 49.8 28.7 46 45.4 30 50-.2c4.4 29.5 21 45.7 49.7 50-29 4.3-45.2 20.6-49.7 50" style="fill-rule:evenodd;clip-rule:evenodd" transform="matrix(.4 0 0 .4 400 200)"/></g><g style="fill:#fff"><path d="M50 99.8C45.8 69.5 28.5 54-.3 49.8 28.7 46 45.4 30 50-.2c4.4 29.5 21 45.7 49.7 50-29 4.3-45.2 20.6-49.7 50" style="fill-rule:evenodd;clip-rule:evenodd" transform="matrix(.4 0 0 .4 560 200)"/></g><g style="fill:#fff"><path d="M50 99.8C45.8 69.5 28.5 54-.3 49.8 28.7 46 45.4 30 50-.2c4.4 29.5 21 45.7 49.7 50-29 4.3-45.2 20.6-49.7 50" style="fill-rule:evenodd;clip-rule:evenodd" transform="matrix(.4 0 0 .4 320 240)"/></g><g style="fill:#fff"><path d="M50 99.8C45.8 69.5 28.5 54-.3 49.8 28.7 46 45.4 30 50-.2c4.4 29.5 21 45.7 49.7 50-29 4.3-45.2 20.6-49.7 50" style="fill-rule:evenodd;clip-rule:evenodd" transform="matrix(.4 0 0 .4 400 240)"/></g><g style="fill:#fff"><path d="M50 99.8C45.8 69.5 28.5 54-.3 49.8 28.7 46 45.4 30 50-.2c4.4 29.5 21 45.7 49.7 50-29 4.3-45.2 20.6-49.7 50" style="fill-rule:evenodd;clip-rule:evenodd" transform="matrix(.4 0 0 .4 480 240)"/></g><g style="fill:#fff"><path d="M50 99.8C45.8 69.5 28.5 54-.3 49.8 28.7 46 45.4 30 50-.2c4.4 29.5 21 45.7 49.7 50-29 4.3-45.2 20.6-49.7 50" style="fill-rule:evenodd;clip-rule:evenodd" transform="matrix(.4 0 0 .4 560 240)"/></g><g style="fill:#fff"><path d="M50 99.8C45.8 69.5 28.5 54-.3 49.8 28.7 46 45.4 30 50-.2c4.4 29.5 21 45.7 49.7 50-29 4.3-45.2 20.6-49.7 50" style="fill-rule:evenodd;clip-rule:evenodd" transform="matrix(.4 0 0 .4 640 240)"/></g><g style="fill:#fff"><path d="M50 99.8C45.8 69.5 28.5 54-.3 49.8 28.7 46 45.4 30 50-.2c4.4 29.5 21 45.7 49.7 50-29 4.3-45.2 20.6-49.7 50" style="fill-rule:evenodd;clip-rule:evenodd" transform="matrix(.4 0 0 .4 360 280)"/></g><g style="fill:#fff"><path d="M50 99.8C45.8 69.5 28.5 54-.3 49.8 28.7 46 45.4 30 50-.2c4.4 29.5 21 45.7 49.7 50-29 4.3-45.2 20.6-49.7 50" style="fill-rule:evenodd;clip-rule:evenodd" transform="matrix(.4 0 0 .4 400 280)"/></g><g style="fill:#fff"><path d="M50 99.8C45.8 69.5 28.5 54-.3 49.8 28.7 46 45.4 30 50-.2c4.4 29.5 21 45.7 49.7 50-29 4.3-45.2 20.6-49.7 50" style="fill-rule:evenodd;clip-rule:evenodd" transform="matrix(.4 0 0 .4 440 280)"/></g><g style="fill:#fff"><path d="M50 99.8C45.8 69.5 28.5 54-.3 49.8 28.7 46 45.4 30 50-.2c4.4 29.5 21 45.7 49.7 50-29 4.3-45.2 20.6-49.7 50" style="fill-rule:evenodd;clip-rule:evenodd" transform="matrix(.4 0 0 .4 480 280)"/></g><g style="fill:#fff"><path d="M50 99.8C45.8 69.5 28.5 54-.3 49.8 28.7 46 45.4 30 50-.2c4.4 29.5 21 45.7 49.7 50-29 4.3-45.2 20.6-49.7 50" style="fill-rule:evenodd;clip-rule:evenodd" transform="matrix(.4 0 0 .4 520 280)"/></g><g style="fill:#fff"><path d="M50 99.8C45.8 69.5 28.5 54-.3 49.8 28.7 46 45.4 30 50-.2c4.4 29.5 21 45.7 49.7 50-29 4.3-45.2 20.6-49.7 50" style="fill-rule:evenodd;clip-rule:evenodd" transform="matrix(.4 0 0 .4 600 280)"/></g><g style="fill:#fff"><path d="M50 99.8C45.8 69.5 28.5 54-.3 49.8 28.7 46 45.4 30 50-.2c4.4 29.5 21 45.7 49.7 50-29 4.3-45.2 20.6-49.7 50" style="fill-rule:evenodd;clip-rule:evenodd" transform="matrix(.4 0 0 .4 0 320)"/></g><g style="fill:#fff"><path d="M50 99.8C45.8 69.5 28.5 54-.3 49.8 28.7 46 45.4 30 50-.2c4.4 29.5 21 45.7 49.7 50-29 4.3-45.2 20.6-49.7 50" style="fill-rule:evenodd;clip-rule:evenodd" transform="matrix(.4 0 0 .4 120 320)"/></g><g style="fill:#fff"><path d="M50 99.8C45.8 69.5 28.5 54-.3 49.8 28.7 46 45.4 30 50-.2c4.4 29.5 21 45.7 49.7 50-29 4.3-45.2 20.6-49.7 50" style="fill-rule:evenodd;clip-rule:evenodd" transform="matrix(.4 0 0 .4 160 320)"/></g><g style="fill:#fff"><path d="M50 99.8C45.8 69.5 28.5 54-.3 49.8 28.7 46 45.4 30 50-.2c4.4 29.5 21 45.7 49.7 50-29 4.3-45.2 20.6-49.7 50" style="fill-rule:evenodd;clip-rule:evenodd" transform="matrix(.4 0 0 .4 200 320)"/></g><g style="fill:#fff"><path d="M50 99.8C45.8 69.5 28.5 54-.3 49.8 28.7 46 45.4 30 50-.2c4.4 29.5 21 45.7 49.7 50-29 4.3-45.2 20.6-49.7 50" style="fill-rule:evenodd;clip-rule:evenodd" transform="matrix(.4 0 0 .4 240 320)"/></g><g style="fill:#fff"><path d="M50 99.8C45.8 69.5 28.5 54-.3 49.8 28.7 46 45.4 30 50-.2c4.4 29.5 21 45.7 49.7 50-29 4.3-45.2 20.6-49.7 50" style="fill-rule:evenodd;clip-rule:evenodd" transform="matrix(.4 0 0 .4 280 320)"/></g><g style="fill:#fff"><path d="M50 99.8C45.8 69.5 28.5 54-.3 49.8 28.7 46 45.4 30 50-.2c4.4 29.5 21 45.7 49.7 50-29 4.3-45.2 20.6-49.7 50" style="fill-rule:evenodd;clip-rule:evenodd" transform="matrix(.4 0 0 .4 320 320)"/></g><g style="fill:#fff"><path d="M50 99.8C45.8 69.5 28.5 54-.3 49.8 28.7 46 45.4 30 50-.2c4.4 29.5 21 45.7 49.7 50-29 4.3-45.2 20.6-49.7 50" style="fill-rule:evenodd;clip-rule:evenodd" transform="matrix(.4 0 0 .4 440 320)"/></g><g style="fill:#fff"><path d="M50 99.8C45.8 69.5 28.5 54-.3 49.8 28.7 46 45.4 30 50-.2c4.4 29.5 21 45.7 49.7 50-29 4.3-45.2 20.6-49.7 50" style="fill-rule:evenodd;clip-rule:evenodd" transform="matrix(.4 0 0 .4 520 320)"/></g><g style="fill:#fff"><path d="M50 99.8C45.8 69.5 28.5 54-.3 49.8 28.7 46 45.4 30 50-.2c4.4 29.5 21 45.7 49.7 50-29 4.3-45.2 20.6-49.7 50" style="fill-rule:evenodd;clip-rule:evenodd" transform="matrix(.4 0 0 .4 640 320)"/></g><g style="fill:#fff"><path d="M50 99.8C45.8 69.5 28.5 54-.3 49.8 28.7 46 45.4 30 50-.2c4.4 29.5 21 45.7 49.7 50-29 4.3-45.2 20.6-49.7 50" style="fill-rule:evenodd;clip-rule:evenodd" transform="matrix(.4 0 0 .4 680 320)"/></g><g style="fill:#fff"><path d="M50 99.8C45.8 69.5 28.5 54-.3 49.8 28.7 46 45.4 30 50-.2c4.4 29.5 21 45.7 49.7 50-29 4.3-45.2 20.6-49.7 50" style="fill-rule:evenodd;clip-rule:evenodd" transform="matrix(.4 0 0 .4 800 320)"/></g><g style="fill:#fff"><path d="M50 99.8C45.8 69.5 28.5 54-.3 49.8 28.7 46 45.4 30 50-.2c4.4 29.5 21 45.7 49.7 50-29 4.3-45.2 20.6-49.7 50" style="fill-rule:evenodd;clip-rule:evenodd" transform="matrix(.4 0 0 .4 880 320)"/></g><g style="fill:#fff"><path d="M50 99.8C45.8 69.5 28.5 54-.3 49.8 28.7 46 45.4 30 50-.2c4.4 29.5 21 45.7 49.7 50-29 4.3-45.2 20.6-49.7 50" style="fill-rule:evenodd;clip-rule:evenodd" transform="matrix(.4 0 0 .4 920 320)"/></g><g style="fill:#fff"><path d="M50 99.8C45.8 69.5 28.5 54-.3 49.8 28.7 46 45.4 30 50-.2c4.4 29.5 21 45.7 49.7 50-29 4.3-45.2 20.6-49.7 50" style="fill-rule:evenodd;clip-rule:evenodd" transform="matrix(.4 0 0 .4 960 320)"/></g><g style="fill:#fff"><path d="M50 99.8C45.8 69.5 28.5 54-.3 49.8 28.7 46 45.4 30 50-.2c4.4 29.5 21 45.7 49.7 50-29 4.3-45.2 20.6-49.7 50" style="fill-rule:evenodd;clip-rule:evenodd" transform="matrix(.4 0 0 .4 40 360)"/></g><g style="fill:#fff"><path d="M50 99.8C45.8 69.5 28.5 54-.3 49.8 28.7 46 45.4 30 50-.2c4.4 29.5 21 45.7 49.7 50-29 4.3-45.2 20.6-49.7 50" style="fill-rule:evenodd;clip-rule:evenodd" transform="matrix(.4 0 0 .4 80 360)"/></g><g style="fill:#fff"><path d="M50 99.8C45.8 69.5 28.5 54-.3 49.8 28.7 46 45.4 30 50-.2c4.4 29.5 21 45.7 49.7 50-29 4.3-45.2 20.6-49.7 50" style="fill-rule:evenodd;clip-rule:evenodd" transform="matrix(.4 0 0 .4 200 360)"/></g><g style="fill:#fff"><path d="M50 99.8C45.8 69.5 28.5 54-.3 49.8 28.7 46 45.4 30 50-.2c4.4 29.5 21 45.7 49.7 50-29 4.3-45.2 20.6-49.7 50" style="fill-rule:evenodd;clip-rule:evenodd" transform="matrix(.4 0 0 .4 280 360)"/></g><g style="fill:#fff"><path d="M50 99.8C45.8 69.5 28.5 54-.3 49.8 28.7 46 45.4 30 50-.2c4.4 29.5 21 45.7 49.7 50-29 4.3-45.2 20.6-49.7 50" style="fill-rule:evenodd;clip-rule:evenodd" transform="matrix(.4 0 0 .4 440 360)"/></g><g style="fill:#fff"><path d="M50 99.8C45.8 69.5 28.5 54-.3 49.8 28.7 46 45.4 30 50-.2c4.4 29.5 21 45.7 49.7 50-29 4.3-45.2 20.6-49.7 50" style="fill-rule:evenodd;clip-rule:evenodd" transform="matrix(.4 0 0 .4 520 360)"/></g><g style="fill:#fff"><path d="M50 99.8C45.8 69.5 28.5 54-.3 49.8 28.7 46 45.4 30 50-.2c4.4 29.5 21 45.7 49.7 50-29 4.3-45.2 20.6-49.7 50" style="fill-rule:evenodd;clip-rule:evenodd" transform="matrix(.4 0 0 .4 560 360)"/></g><g style="fill:#fff"><path d="M50 99.8C45.8 69.5 28.5 54-.3 49.8 28.7 46 45.4 30 50-.2c4.4 29.5 21 45.7 49.7 50-29 4.3-45.2 20.6-49.7 50" style="fill-rule:evenodd;clip-rule:evenodd" transform="matrix(.4 0 0 .4 600 360)"/></g><g style="fill:#fff"><path d="M50 99.8C45.8 69.5 28.5 54-.3 49.8 28.7 46 45.4 30 50-.2c4.4 29.5 21 45.7 49.7 50-29 4.3-45.2 20.6-49.7 50" style="fill-rule:evenodd;clip-rule:evenodd" transform="matrix(.4 0 0 .4 760 360)"/></g><g style="fill:#fff"><path d="M50 99.8C45.8 69.5 28.5 54-.3 49.8 28.7 46 45.4 30 50-.2c4.4 29.5 21 45.7 49.7 50-29 4.3-45.2 20.6-49.7 50" style="fill-rule:evenodd;clip-rule:evenodd" transform="matrix(.4 0 0 .4 800 360)"/></g><g style="fill:#fff"><path d="M50 99.8C45.8 69.5 28.5 54-.3 49.8 28.7 46 45.4 30 50-.2c4.4 29.5 21 45.7 49.7 50-29 4.3-45.2 20.6-49.7 50" style="fill-rule:evenodd;clip-rule:evenodd" transform="matrix(.4 0 0 .4 840 360)"/></g><g style="fill:#fff"><path d="M50 99.8C45.8 69.5 28.5 54-.3 49.8 28.7 46 45.4 30 50-.2c4.4 29.5 21 45.7 49.7 50-29 4.3-45.2 20.6-49.7 50" style="fill-rule:evenodd;clip-rule:evenodd" transform="matrix(.4 0 0 .4 880 360)"/></g><g style="fill:#fff"><path d="M50 99.8C45.8 69.5 28.5 54-.3 49.8 28.7 46 45.4 30 50-.2c4.4 29.5 21 45.7 49.7 50-29 4.3-45.2 20.6-49.7 50" style="fill-rule:evenodd;clip-rule:evenodd" transform="matrix(.4 0 0 .4 920 360)"/></g><g style="fill:#fff"><path d="M50 99.8C45.8 69.5 28.5 54-.3 49.8 28.7 46 45.4 30 50-.2c4.4 29.5 21 45.7 49.7 50-29 4.3-45.2 20.6-49.7 50" style="fill-rule:evenodd;clip-rule:evenodd" transform="matrix(.4 0 0 .4 0 400)"/></g><g style="fill:#fff"><path d="M50 99.8C45.8 69.5 28.5 54-.3 49.8 28.7 46 45.4 30 50-.2c4.4 29.5 21 45.7 49.7 50-29 4.3-45.2 20.6-49.7 50" style="fill-rule:evenodd;clip-rule:evenodd" transform="matrix(.4 0 0 .4 120 400)"/></g><g style="fill:#fff"><path d="M50 99.8C45.8 69.5 28.5 54-.3 49.8 28.7 46 45.4 30 50-.2c4.4 29.5 21 45.7 49.7 50-29 4.3-45.2 20.6-49.7 50" style="fill-rule:evenodd;clip-rule:evenodd" transform="matrix(.4 0 0 .4 240 400)"/></g><g style="fill:#fff"><path d="M50 99.8C45.8 69.5 28.5 54-.3 49.8 28.7 46 45.4 30 50-.2c4.4 29.5 21 45.7 49.7 50-29 4.3-45.2 20.6-49.7 50" style="fill-rule:evenodd;clip-rule:evenodd" transform="matrix(.4 0 0 .4 360 400)"/></g><g style="fill:#fff"><path d="M50 99.8C45.8 69.5 28.5 54-.3 49.8 28.7 46 45.4 30 50-.2c4.4 29.5 21 45.7 49.7 50-29 4.3-45.2 20.6-49.7 50" style="fill-rule:evenodd;clip-rule:evenodd" transform="matrix(.4 0 0 .4 440 400)"/></g><g style="fill:#fff"><path d="M50 99.8C45.8 69.5 28.5 54-.3 49.8 28.7 46 45.4 30 50-.2c4.4 29.5 21 45.7 49.7 50-29 4.3-45.2 20.6-49.7 50" style="fill-rule:evenodd;clip-rule:evenodd" transform="matrix(.4 0 0 .4 480 400)"/></g><g style="fill:#fff"><path d="M50 99.8C45.8 69.5 28.5 54-.3 49.8 28.7 46 45.4 30 50-.2c4.4 29.5 21 45.7 49.7 50-29 4.3-45.2 20.6-49.7 50" style="fill-rule:evenodd;clip-rule:evenodd" transform="matrix(.4 0 0 .4 520 400)"/></g><g style="fill:#fff"><path d="M50 99.8C45.8 69.5 28.5 54-.3 49.8 28.7 46 45.4 30 50-.2c4.4 29.5 21 45.7 49.7 50-29 4.3-45.2 20.6-49.7 50" style="fill-rule:evenodd;clip-rule:evenodd" transform="matrix(.4 0 0 .4 600 400)"/></g><g style="fill:#fff"><path d="M50 99.8C45.8 69.5 28.5 54-.3 49.8 28.7 46 45.4 30 50-.2c4.4 29.5 21 45.7 49.7 50-29 4.3-45.2 20.6-49.7 50" style="fill-rule:evenodd;clip-rule:evenodd" transform="matrix(.4 0 0 .4 640 400)"/></g><g style="fill:#fff"><path d="M50 99.8C45.8 69.5 28.5 54-.3 49.8 28.7 46 45.4 30 50-.2c4.4 29.5 21 45.7 49.7 50-29 4.3-45.2 20.6-49.7 50" style="fill-rule:evenodd;clip-rule:evenodd" transform="matrix(.4 0 0 .4 680 400)"/></g><g style="fill:#fff"><path d="M50 99.8C45.8 69.5 28.5 54-.3 49.8 28.7 46 45.4 30 50-.2c4.4 29.5 21 45.7 49.7 50-29 4.3-45.2 20.6-49.7 50" style="fill-rule:evenodd;clip-rule:evenodd" transform="matrix(.4 0 0 .4 840 400)"/></g><g style="fill:#fff"><path d="M50 99.8C45.8 69.5 28.5 54-.3 49.8 28.7 46 45.4 30 50-.2c4.4 29.5 21 45.7 49.7 50-29 4.3-45.2 20.6-49.7 50" style="fill-rule:evenodd;clip-rule:evenodd" transform="matrix(.4 0 0 .4 960 400)"/></g><g style="fill:#fff"><path d="M50 99.8C45.8 69.5 28.5 54-.3 49.8 28.7 46 45.4 30 50-.2c4.4 29.5 21 45.7 49.7 50-29 4.3-45.2 20.6-49.7 50" style="fill-rule:evenodd;clip-rule:evenodd" transform="matrix(.4 0 0 .4 40 440)"/></g><g style="fill:#fff"><path d="M50 99.8C45.8 69.5 28.5 54-.3 49.8 28.7 46 45.4 30 50-.2c4.4 29.5 21 45.7 49.7 50-29 4.3-45.2 20.6-49.7 50" style="fill-rule:evenodd;clip-rule:evenodd" transform="matrix(.4 0 0 .4 80 440)"/></g><g style="fill:#fff"><path d="M50 99.8C45.8 69.5 28.5 54-.3 49.8 28.7 46 45.4 30 50-.2c4.4 29.5 21 45.7 49.7 50-29 4.3-45.2 20.6-49.7 50" style="fill-rule:evenodd;clip-rule:evenodd" transform="matrix(.4 0 0 .4 120 440)"/></g><g style="fill:#fff"><path d="M50 99.8C45.8 69.5 28.5 54-.3 49.8 28.7 46 45.4 30 50-.2c4.4 29.5 21 45.7 49.7 50-29 4.3-45.2 20.6-49.7 50" style="fill-rule:evenodd;clip-rule:evenodd" transform="matrix(.4 0 0 .4 360 440)"/></g><g style="fill:#fff"><path d="M50 99.8C45.8 69.5 28.5 54-.3 49.8 28.7 46 45.4 30 50-.2c4.4 29.5 21 45.7 49.7 50-29 4.3-45.2 20.6-49.7 50" style="fill-rule:evenodd;clip-rule:evenodd" transform="matrix(.4 0 0 .4 520 440)"/></g><g style="fill:#fff"><path d="M50 99.8C45.8 69.5 28.5 54-.3 49.8 28.7 46 45.4 30 50-.2c4.4 29.5 21 45.7 49.7 50-29 4.3-45.2 20.6-49.7 50" style="fill-rule:evenodd;clip-rule:evenodd" transform="matrix(.4 0 0 .4 640 440)"/></g><g style="fill:#fff"><path d="M50 99.8C45.8 69.5 28.5 54-.3 49.8 28.7 46 45.4 30 50-.2c4.4 29.5 21 45.7 49.7 50-29 4.3-45.2 20.6-49.7 50" style="fill-rule:evenodd;clip-rule:evenodd" transform="matrix(.4 0 0 .4 720 440)"/></g><g style="fill:#fff"><path d="M50 99.8C45.8 69.5 28.5 54-.3 49.8 28.7 46 45.4 30 50-.2c4.4 29.5 21 45.7 49.7 50-29 4.3-45.2 20.6-49.7 50" style="fill-rule:evenodd;clip-rule:evenodd" transform="matrix(.4 0 0 .4 800 440)"/></g><g style="fill:#fff"><path d="M50 99.8C45.8 69.5 28.5 54-.3 49.8 28.7 46 45.4 30 50-.2c4.4 29.5 21 45.7 49.7 50-29 4.3-45.2 20.6-49.7 50" style="fill-rule:evenodd;clip-rule:evenodd" transform="matrix(.4 0 0 .4 840 440)"/></g><g style="fill:#fff"><path d="M50 99.8C45.8 69.5 28.5 54-.3 49.8 28.7 46 45.4 30 50-.2c4.4 29.5 21 45.7 49.7 50-29 4.3-45.2 20.6-49.7 50" style="fill-rule:evenodd;clip-rule:evenodd" transform="matrix(.4 0 0 .4 880 440)"/></g><g style="fill:#fff"><path d="M50 99.8C45.8 69.5 28.5 54-.3 49.8 28.7 46 45.4 30 50-.2c4.4 29.5 21 45.7 49.7 50-29 4.3-45.2 20.6-49.7 50" style="fill-rule:evenodd;clip-rule:evenodd" transform="matrix(.4 0 0 .4 920 440)"/></g><g style="fill:#fff"><path d="M50 99.8C45.8 69.5 28.5 54-.3 49.8 28.7 46 45.4 30 50-.2c4.4 29.5 21 45.7 49.7 50-29 4.3-45.2 20.6-49.7 50" style="fill-rule:evenodd;clip-rule:evenodd" transform="matrix(.4 0 0 .4 960 440)"/></g><g style="fill:#fff"><path d="M50 99.8C45.8 69.5 28.5 54-.3 49.8 28.7 46 45.4 30 50-.2c4.4 29.5 21 45.7 49.7 50-29 4.3-45.2 20.6-49.7 50" style="fill-rule:evenodd;clip-rule:evenodd" transform="matrix(.4 0 0 .4 0 480)"/></g><g style="fill:#fff"><path d="M50 99.8C45.8 69.5 28.5 54-.3 49.8 28.7 46 45.4 30 50-.2c4.4 29.5 21 45.7 49.7 50-29 4.3-45.2 20.6-49.7 50" style="fill-rule:evenodd;clip-rule:evenodd" transform="matrix(.4 0 0 .4 40 480)"/></g><g style="fill:#fff"><path d="M50 99.8C45.8 69.5 28.5 54-.3 49.8 28.7 46 45.4 30 50-.2c4.4 29.5 21 45.7 49.7 50-29 4.3-45.2 20.6-49.7 50" style="fill-rule:evenodd;clip-rule:evenodd" transform="matrix(.4 0 0 .4 160 480)"/></g><g style="fill:#fff"><path d="M50 99.8C45.8 69.5 28.5 54-.3 49.8 28.7 46 45.4 30 50-.2c4.4 29.5 21 45.7 49.7 50-29 4.3-45.2 20.6-49.7 50" style="fill-rule:evenodd;clip-rule:evenodd" transform="matrix(.4 0 0 .4 240 480)"/></g><g style="fill:#fff"><path d="M50 99.8C45.8 69.5 28.5 54-.3 49.8 28.7 46 45.4 30 50-.2c4.4 29.5 21 45.7 49.7 50-29 4.3-45.2 20.6-49.7 50" style="fill-rule:evenodd;clip-rule:evenodd" transform="matrix(.4 0 0 .4 280 480)"/></g><g style="fill:#fff"><path d="M50 99.8C45.8 69.5 28.5 54-.3 49.8 28.7 46 45.4 30 50-.2c4.4 29.5 21 45.7 49.7 50-29 4.3-45.2 20.6-49.7 50" style="fill-rule:evenodd;clip-rule:evenodd" transform="matrix(.4 0 0 .4 440 480)"/></g><g style="fill:#fff"><path d="M50 99.8C45.8 69.5 28.5 54-.3 49.8 28.7 46 45.4 30 50-.2c4.4 29.5 21 45.7 49.7 50-29 4.3-45.2 20.6-49.7 50" style="fill-rule:evenodd;clip-rule:evenodd" transform="matrix(.4 0 0 .4 480 480)"/></g><g style="fill:#fff"><path d="M50 99.8C45.8 69.5 28.5 54-.3 49.8 28.7 46 45.4 30 50-.2c4.4 29.5 21 45.7 49.7 50-29 4.3-45.2 20.6-49.7 50" style="fill-rule:evenodd;clip-rule:evenodd" transform="matrix(.4 0 0 .4 520 480)"/></g><g style="fill:#fff"><path d="M50 99.8C45.8 69.5 28.5 54-.3 49.8 28.7 46 45.4 30 50-.2c4.4 29.5 21 45.7 49.7 50-29 4.3-45.2 20.6-49.7 50" style="fill-rule:evenodd;clip-rule:evenodd" transform="matrix(.4 0 0 .4 640 480)"/></g><g style="fill:#fff"><path d="M50 99.8C45.8 69.5 28.5 54-.3 49.8 28.7 46 45.4 30 50-.2c4.4 29.5 21 45.7 49.7 50-29 4.3-45.2 20.6-49.7 50" style="fill-rule:evenodd;clip-rule:evenodd" transform="matrix(.4 0 0 .4 720 480)"/></g><g style="fill:#fff"><path d="M50 99.8C45.8 69.5 28.5 54-.3 49.8 28.7 46 45.4 30 50-.2c4.4 29.5 21 45.7 49.7 50-29 4.3-45.2 20.6-49.7 50" style="fill-rule:evenodd;clip-rule:evenodd" transform="matrix(.4 0 0 .4 760 480)"/></g><g style="fill:#fff"><path d="M50 99.8C45.8 69.5 28.5 54-.3 49.8 28.7 46 45.4 30 50-.2c4.4 29.5 21 45.7 49.7 50-29 4.3-45.2 20.6-49.7 50" style="fill-rule:evenodd;clip-rule:evenodd" transform="matrix(.4 0 0 .4 960 480)"/></g><g style="fill:#fff"><path d="M50 99.8C45.8 69.5 28.5 54-.3 49.8 28.7 46 45.4 30 50-.2c4.4 29.5 21 45.7 49.7 50-29 4.3-45.2 20.6-49.7 50" style="fill-rule:evenodd;clip-rule:evenodd" transform="matrix(.4 0 0 .4 0 520)"/></g><g style="fill:#fff"><path d="M50 99.8C45.8 69.5 28.5 54-.3 49.8 28.7 46 45.4 30 50-.2c4.4 29.5 21 45.7 49.7 50-29 4.3-45.2 20.6-49.7 50" style="fill-rule:evenodd;clip-rule:evenodd" transform="matrix(.4 0 0 .4 40 520)"/></g><g style="fill:#fff"><path d="M50 99.8C45.8 69.5 28.5 54-.3 49.8 28.7 46 45.4 30 50-.2c4.4 29.5 21 45.7 49.7 50-29 4.3-45.2 20.6-49.7 50" style="fill-rule:evenodd;clip-rule:evenodd" transform="matrix(.4 0 0 .4 80 520)"/></g><g style="fill:#fff"><path d="M50 99.8C45.8 69.5 28.5 54-.3 49.8 28.7 46 45.4 30 50-.2c4.4 29.5 21 45.7 49.7 50-29 4.3-45.2 20.6-49.7 50" style="fill-rule:evenodd;clip-rule:evenodd" transform="matrix(.4 0 0 .4 120 520)"/></g><g style="fill:#fff"><path d="M50 99.8C45.8 69.5 28.5 54-.3 49.8 28.7 46 45.4 30 50-.2c4.4 29.5 21 45.7 49.7 50-29 4.3-45.2 20.6-49.7 50" style="fill-rule:evenodd;clip-rule:evenodd" transform="matrix(.4 0 0 .4 200 520)"/></g><g style="fill:#fff"><path d="M50 99.8C45.8 69.5 28.5 54-.3 49.8 28.7 46 45.4 30 50-.2c4.4 29.5 21 45.7 49.7 50-29 4.3-45.2 20.6-49.7 50" style="fill-rule:evenodd;clip-rule:evenodd" transform="matrix(.4 0 0 .4 280 520)"/></g><g style="fill:#fff"><path d="M50 99.8C45.8 69.5 28.5 54-.3 49.8 28.7 46 45.4 30 50-.2c4.4 29.5 21 45.7 49.7 50-29 4.3-45.2 20.6-49.7 50" style="fill-rule:evenodd;clip-rule:evenodd" transform="matrix(.4 0 0 .4 320 520)"/></g><g style="fill:#fff"><path d="M50 99.8C45.8 69.5 28.5 54-.3 49.8 28.7 46 45.4 30 50-.2c4.4 29.5 21 45.7 49.7 50-29 4.3-45.2 20.6-49.7 50" style="fill-rule:evenodd;clip-rule:evenodd" transform="matrix(.4 0 0 .4 360 520)"/></g><g style="fill:#fff"><path d="M50 99.8C45.8 69.5 28.5 54-.3 49.8 28.7 46 45.4 30 50-.2c4.4 29.5 21 45.7 49.7 50-29 4.3-45.2 20.6-49.7 50" style="fill-rule:evenodd;clip-rule:evenodd" transform="matrix(.4 0 0 .4 400 520)"/></g><g style="fill:#fff"><path d="M50 99.8C45.8 69.5 28.5 54-.3 49.8 28.7 46 45.4 30 50-.2c4.4 29.5 21 45.7 49.7 50-29 4.3-45.2 20.6-49.7 50" style="fill-rule:evenodd;clip-rule:evenodd" transform="matrix(.4 0 0 .4 520 520)"/></g><g style="fill:#fff"><path d="M50 99.8C45.8 69.5 28.5 54-.3 49.8 28.7 46 45.4 30 50-.2c4.4 29.5 21 45.7 49.7 50-29 4.3-45.2 20.6-49.7 50" style="fill-rule:evenodd;clip-rule:evenodd" transform="matrix(.4 0 0 .4 560 520)"/></g><g style="fill:#fff"><path d="M50 99.8C45.8 69.5 28.5 54-.3 49.8 28.7 46 45.4 30 50-.2c4.4 29.5 21 45.7 49.7 50-29 4.3-45.2 20.6-49.7 50" style="fill-rule:evenodd;clip-rule:evenodd" transform="matrix(.4 0 0 .4 600 520)"/></g><g style="fill:#fff"><path d="M50 99.8C45.8 69.5 28.5 54-.3 49.8 28.7 46 45.4 30 50-.2c4.4 29.5 21 45.7 49.7 50-29 4.3-45.2 20.6-49.7 50" style="fill-rule:evenodd;clip-rule:evenodd" transform="matrix(.4 0 0 .4 640 520)"/></g><g style="fill:#fff"><path d="M50 99.8C45.8 69.5 28.5 54-.3 49.8 28.7 46 45.4 30 50-.2c4.4 29.5 21 45.7 49.7 50-29 4.3-45.2 20.6-49.7 50" style="fill-rule:evenodd;clip-rule:evenodd" transform="matrix(.4 0 0 .4 800 520)"/></g><g style="fill:#fff"><path d="M50 99.8C45.8 69.5 28.5 54-.3 49.8 28.7 46 45.4 30 50-.2c4.4 29.5 21 45.7 49.7 50-29 4.3-45.2 20.6-49.7 50" style="fill-rule:evenodd;clip-rule:evenodd" transform="matrix(.4 0 0 .4 920 520)"/></g><g style="fill:#fff"><path d="M50 99.8C45.8 69.5 28.5 54-.3 49.8 28.7 46 45.4 30 50-.2c4.4 29.5 21 45.7 49.7 50-29 4.3-45.2 20.6-49.7 50" style="fill-rule:evenodd;clip-rule:evenodd" transform="matrix(.4 0 0 .4 0 560)"/></g><g style="fill:#fff"><path d="M50 99.8C45.8 69.5 28.5 54-.3 49.8 28.7 46 45.4 30 50-.2c4.4 29.5 21 45.7 49.7 50-29 4.3-45.2 20.6-49.7 50" style="fill-rule:evenodd;clip-rule:evenodd" transform="matrix(.4 0 0 .4 40 560)"/></g><g style="fill:#fff"><path d="M50 99.8C45.8 69.5 28.5 54-.3 49.8 28.7 46 45.4 30 50-.2c4.4 29.5 21 45.7 49.7 50-29 4.3-45.2 20.6-49.7 50" style="fill-rule:evenodd;clip-rule:evenodd" transform="matrix(.4 0 0 .4 240 560)"/></g><g style="fill:#fff"><path d="M50 99.8C45.8 69.5 28.5 54-.3 49.8 28.7 46 45.4 30 50-.2c4.4 29.5 21 45.7 49.7 50-29 4.3-45.2 20.6-49.7 50" style="fill-rule:evenodd;clip-rule:evenodd" transform="matrix(.4 0 0 .4 280 560)"/></g><g style="fill:#fff"><path d="M50 99.8C45.8 69.5 28.5 54-.3 49.8 28.7 46 45.4 30 50-.2c4.4 29.5 21 45.7 49.7 50-29 4.3-45.2 20.6-49.7 50" style="fill-rule:evenodd;clip-rule:evenodd" transform="matrix(.4 0 0 .4 360 560)"/></g><g style="fill:#fff"><path d="M50 99.8C45.8 69.5 28.5 54-.3 49.8 28.7 46 45.4 30 50-.2c4.4 29.5 21 45.7 49.7 50-29 4.3-45.2 20.6-49.7 50" style="fill-rule:evenodd;clip-rule:evenodd" transform="matrix(.4 0 0 .4 400 560)"/></g><g style="fill:#fff"><path d="M50 99.8C45.8 69.5 28.5 54-.3 49.8 28.7 46 45.4 30 50-.2c4.4 29.5 21 45.7 49.7 50-29 4.3-45.2 20.6-49.7 50" style="fill-rule:evenodd;clip-rule:evenodd" transform="matrix(.4 0 0 .4 440 560)"/></g><g style="fill:#fff"><path d="M50 99.8C45.8 69.5 28.5 54-.3 49.8 28.7 46 45.4 30 50-.2c4.4 29.5 21 45.7 49.7 50-29 4.3-45.2 20.6-49.7 50" style="fill-rule:evenodd;clip-rule:evenodd" transform="matrix(.4 0 0 .4 480 560)"/></g><g style="fill:#fff"><path d="M50 99.8C45.8 69.5 28.5 54-.3 49.8 28.7 46 45.4 30 50-.2c4.4 29.5 21 45.7 49.7 50-29 4.3-45.2 20.6-49.7 50" style="fill-rule:evenodd;clip-rule:evenodd" transform="matrix(.4 0 0 .4 520 560)"/></g><g style="fill:#fff"><path d="M50 99.8C45.8 69.5 28.5 54-.3 49.8 28.7 46 45.4 30 50-.2c4.4 29.5 21 45.7 49.7 50-29 4.3-45.2 20.6-49.7 50" style="fill-rule:evenodd;clip-rule:evenodd" transform="matrix(.4 0 0 .4 600 560)"/></g><g style="fill:#fff"><path d="M50 99.8C45.8 69.5 28.5 54-.3 49.8 28.7 46 45.4 30 50-.2c4.4 29.5 21 45.7 49.7 50-29 4.3-45.2 20.6-49.7 50" style="fill-rule:evenodd;clip-rule:evenodd" transform="matrix(.4 0 0 .4 640 560)"/></g><g style="fill:#fff"><path d="M50 99.8C45.8 69.5 28.5 54-.3 49.8 28.7 46 45.4 30 50-.2c4.4 29.5 21 45.7 49.7 50-29 4.3-45.2 20.6-49.7 50" style="fill-rule:evenodd;clip-rule:evenodd" transform="matrix(.4 0 0 .4 680 560)"/></g><g style="fill:#fff"><path d="M50 99.8C45.8 69.5 28.5 54-.3 49.8 28.7 46 45.4 30 50-.2c4.4 29.5 21 45.7 49.7 50-29 4.3-45.2 20.6-49.7 50" style="fill-rule:evenodd;clip-rule:evenodd" transform="matrix(.4 0 0 .4 800 560)"/></g><g style="fill:#fff"><path d="M50 99.8C45.8 69.5 28.5 54-.3 49.8 28.7 46 45.4 30 50-.2c4.4 29.5 21 45.7 49.7 50-29 4.3-45.2 20.6-49.7 50" style="fill-rule:evenodd;clip-rule:evenodd" transform="matrix(.4 0 0 .4 840 560)"/></g><g style="fill:#fff"><path d="M50 99.8C45.8 69.5 28.5 54-.3 49.8 28.7 46 45.4 30 50-.2c4.4 29.5 21 45.7 49.7 50-29 4.3-45.2 20.6-49.7 50" style="fill-rule:evenodd;clip-rule:evenodd" transform="matrix(.4 0 0 .4 880 560)"/></g><g style="fill:#fff"><path d="M50 99.8C45.8 69.5 28.5 54-.3 49.8 28.7 46 45.4 30 50-.2c4.4 29.5 21 45.7 49.7 50-29 4.3-45.2 20.6-49.7 50" style="fill-rule:evenodd;clip-rule:evenodd" transform="matrix(.4 0 0 .4 920 560)"/></g><g style="fill:#fff"><path d="M50 99.8C45.8 69.5 28.5 54-.3 49.8 28.7 46 45.4 30 50-.2c4.4 29.5 21 45.7 49.7 50-29 4.3-45.2 20.6-49.7 50" style="fill-rule:evenodd;clip-rule:evenodd" transform="matrix(.4 0 0 .4 960 560)"/></g><g style="fill:#fff"><path d="M50 99.8C45.8 69.5 28.5 54-.3 49.8 28.7 46 45.4 30 50-.2c4.4 29.5 21 45.7 49.7 50-29 4.3-45.2 20.6-49.7 50" style="fill-rule:evenodd;clip-rule:evenodd" transform="matrix(.4 0 0 .4 0 600)"/></g><g style="fill:#fff"><path d="M50 99.8C45.8 69.5 28.5 54-.3 49.8 28.7 46 45.4 30 50-.2c4.4 29.5 21 45.7 49.7 50-29 4.3-45.2 20.6-49.7 50" style="fill-rule:evenodd;clip-rule:evenodd" transform="matrix(.4 0 0 .4 200 600)"/></g><g style="fill:#fff"><path d="M50 99.8C45.8 69.5 28.5 54-.3 49.8 28.7 46 45.4 30 50-.2c4.4 29.5 21 45.7 49.7 50-29 4.3-45.2 20.6-49.7 50" style="fill-rule:evenodd;clip-rule:evenodd" transform="matrix(.4 0 0 .4 280 600)"/></g><g style="fill:#fff"><path d="M50 99.8C45.8 69.5 28.5 54-.3 49.8 28.7 46 45.4 30 50-.2c4.4 29.5 21 45.7 49.7 50-29 4.3-45.2 20.6-49.7 50" style="fill-rule:evenodd;clip-rule:evenodd" transform="matrix(.4 0 0 .4 400 600)"/></g><g style="fill:#fff"><path d="M50 99.8C45.8 69.5 28.5 54-.3 49.8 28.7 46 45.4 30 50-.2c4.4 29.5 21 45.7 49.7 50-29 4.3-45.2 20.6-49.7 50" style="fill-rule:evenodd;clip-rule:evenodd" transform="matrix(.4 0 0 .4 440 600)"/></g><g style="fill:#fff"><path d="M50 99.8C45.8 69.5 28.5 54-.3 49.8 28.7 46 45.4 30 50-.2c4.4 29.5 21 45.7 49.7 50-29 4.3-45.2 20.6-49.7 50" style="fill-rule:evenodd;clip-rule:evenodd" transform="matrix(.4 0 0 .4 640 600)"/></g><g style="fill:#fff"><path d="M50 99.8C45.8 69.5 28.5 54-.3 49.8 28.7 46 45.4 30 50-.2c4.4 29.5 21 45.7 49.7 50-29 4.3-45.2 20.6-49.7 50" style="fill-rule:evenodd;clip-rule:evenodd" transform="matrix(.4 0 0 .4 760 600)"/></g><g style="fill:#fff"><path d="M50 99.8C45.8 69.5 28.5 54-.3 49.8 28.7 46 45.4 30 50-.2c4.4 29.5 21 45.7 49.7 50-29 4.3-45.2 20.6-49.7 50" style="fill-rule:evenodd;clip-rule:evenodd" transform="matrix(.4 0 0 .4 840 600)"/></g><g style="fill:#fff"><path d="M50 99.8C45.8 69.5 28.5 54-.3 49.8 28.7 46 45.4 30 50-.2c4.4 29.5 21 45.7 49.7 50-29 4.3-45.2 20.6-49.7 50" style="fill-rule:evenodd;clip-rule:evenodd" transform="matrix(.4 0 0 .4 880 600)"/></g><g style="fill:#fff"><path d="M50 99.8C45.8 69.5 28.5 54-.3 49.8 28.7 46 45.4 30 50-.2c4.4 29.5 21 45.7 49.7 50-29 4.3-45.2 20.6-49.7 50" style="fill-rule:evenodd;clip-rule:evenodd" transform="matrix(.4 0 0 .4 960 600)"/></g><g style="fill:#fff"><path d="M50 99.8C45.8 69.5 28.5 54-.3 49.8 28.7 46 45.4 30 50-.2c4.4 29.5 21 45.7 49.7 50-29 4.3-45.2 20.6-49.7 50" style="fill-rule:evenodd;clip-rule:evenodd" transform="matrix(.4 0 0 .4 0 640)"/></g><g style="fill:#fff"><path d="M50 99.8C45.8 69.5 28.5 54-.3 49.8 28.7 46 45.4 30 50-.2c4.4 29.5 21 45.7 49.7 50-29 4.3-45.2 20.6-49.7 50" style="fill-rule:evenodd;clip-rule:evenodd" transform="matrix(.4 0 0 .4 160 640)"/></g><g style="fill:#fff"><path d="M50 99.8C45.8 69.5 28.5 54-.3 49.8 28.7 46 45.4 30 50-.2c4.4 29.5 21 45.7 49.7 50-29 4.3-45.2 20.6-49.7 50" style="fill-rule:evenodd;clip-rule:evenodd" transform="matrix(.4 0 0 .4 200 640)"/></g><g style="fill:#fff"><path d="M50 99.8C45.8 69.5 28.5 54-.3 49.8 28.7 46 45.4 30 50-.2c4.4 29.5 21 45.7 49.7 50-29 4.3-45.2 20.6-49.7 50" style="fill-rule:evenodd;clip-rule:evenodd" transform="matrix(.4 0 0 .4 240 640)"/></g><g style="fill:#fff"><path d="M50 99.8C45.8 69.5 28.5 54-.3 49.8 28.7 46 45.4 30 50-.2c4.4 29.5 21 45.7 49.7 50-29 4.3-45.2 20.6-49.7 50" style="fill-rule:evenodd;clip-rule:evenodd" transform="matrix(.4 0 0 .4 280 640)"/></g><g style="fill:#fff"><path d="M50 99.8C45.8 69.5 28.5 54-.3 49.8 28.7 46 45.4 30 50-.2c4.4 29.5 21 45.7 49.7 50-29 4.3-45.2 20.6-49.7 50" style="fill-rule:evenodd;clip-rule:evenodd" transform="matrix(.4 0 0 .4 320 640)"/></g><g style="fill:#fff"><path d="M50 99.8C45.8 69.5 28.5 54-.3 49.8 28.7 46 45.4 30 50-.2c4.4 29.5 21 45.7 49.7 50-29 4.3-45.2 20.6-49.7 50" style="fill-rule:evenodd;clip-rule:evenodd" transform="matrix(.4 0 0 .4 400 640)"/></g><g style="fill:#fff"><path d="M50 99.8C45.8 69.5 28.5 54-.3 49.8 28.7 46 45.4 30 50-.2c4.4 29.5 21 45.7 49.7 50-29 4.3-45.2 20.6-49.7 50" style="fill-rule:evenodd;clip-rule:evenodd" transform="matrix(.4 0 0 .4 560 640)"/></g><g style="fill:#fff"><path d="M50 99.8C45.8 69.5 28.5 54-.3 49.8 28.7 46 45.4 30 50-.2c4.4 29.5 21 45.7 49.7 50-29 4.3-45.2 20.6-49.7 50" style="fill-rule:evenodd;clip-rule:evenodd" transform="matrix(.4 0 0 .4 640 640)"/></g><g style="fill:#fff"><path d="M50 99.8C45.8 69.5 28.5 54-.3 49.8 28.7 46 45.4 30 50-.2c4.4 29.5 21 45.7 49.7 50-29 4.3-45.2 20.6-49.7 50" style="fill-rule:evenodd;clip-rule:evenodd" transform="matrix(.4 0 0 .4 680 640)"/></g><g style="fill:#fff"><path d="M50 99.8C45.8 69.5 28.5 54-.3 49.8 28.7 46 45.4 30 50-.2c4.4 29.5 21 45.7 49.7 50-29 4.3-45.2 20.6-49.7 50" style="fill-rule:evenodd;clip-rule:evenodd" transform="matrix(.4 0 0 .4 720 640)"/></g><g style="fill:#fff"><path d="M50 99.8C45.8 69.5 28.5 54-.3 49.8 28.7 46 45.4 30 50-.2c4.4 29.5 21 45.7 49.7 50-29 4.3-45.2 20.6-49.7 50" style="fill-rule:evenodd;clip-rule:evenodd" transform="matrix(.4 0 0 .4 760 640)"/></g><g style="fill:#fff"><path d="M50 99.8C45.8 69.5 28.5 54-.3 49.8 28.7 46 45.4 30 50-.2c4.4 29.5 21 45.7 49.7 50-29 4.3-45.2 20.6-49.7 50" style="fill-rule:evenodd;clip-rule:evenodd" transform="matrix(.4 0 0 .4 800 640)"/></g><g style="fill:#fff"><path d="M50 99.8C45.8 69.5 28.5 54-.3 49.8 28.7 46 45.4 30 50-.2c4.4 29.5 21 45.7 49.7 50-29 4.3-45.2 20.6-49.7 50" style="fill-rule:evenodd;clip-rule:evenodd" transform="matrix(.4 0 0 .4 880 640)"/></g><g style="fill:#fff"><path d="M50 99.8C45.8 69.5 28.5 54-.3 49.8 28.7 46 45.4 30 50-.2c4.4 29.5 21 45.7 49.7 50-29 4.3-45.2 20.6-49.7 50" style="fill-rule:evenodd;clip-rule:evenodd" transform="matrix(.4 0 0 .4 920 640)"/></g><g style="fill:#fff"><path d="M50 99.8C45.8 69.5 28.5 54-.3 49.8 28.7 46 45.4 30 50-.2c4.4 29.5 21 45.7 49.7 50-29 4.3-45.2 20.6-49.7 50" style="fill-rule:evenodd;clip-rule:evenodd" transform="matrix(.4 0 0 .4 320 680)"/></g><g style="fill:#fff"><path d="M50 99.8C45.8 69.5 28.5 54-.3 49.8 28.7 46 45.4 30 50-.2c4.4 29.5 21 45.7 49.7 50-29 4.3-45.2 20.6-49.7 50" style="fill-rule:evenodd;clip-rule:evenodd" transform="matrix(.4 0 0 .4 360 680)"/></g><g style="fill:#fff"><path d="M50 99.8C45.8 69.5 28.5 54-.3 49.8 28.7 46 45.4 30 50-.2c4.4 29.5 21 45.7 49.7 50-29 4.3-45.2 20.6-49.7 50" style="fill-rule:evenodd;clip-rule:evenodd" transform="matrix(.4 0 0 .4 400 680)"/></g><g style="fill:#fff"><path d="M50 99.8C45.8 69.5 28.5 54-.3 49.8 28.7 46 45.4 30 50-.2c4.4 29.5 21 45.7 49.7 50-29 4.3-45.2 20.6-49.7 50" style="fill-rule:evenodd;clip-rule:evenodd" transform="matrix(.4 0 0 .4 440 680)"/></g><g style="fill:#fff"><path d="M50 99.8C45.8 69.5 28.5 54-.3 49.8 28.7 46 45.4 30 50-.2c4.4 29.5 21 45.7 49.7 50-29 4.3-45.2 20.6-49.7 50" style="fill-rule:evenodd;clip-rule:evenodd" transform="matrix(.4 0 0 .4 480 680)"/></g><g style="fill:#fff"><path d="M50 99.8C45.8 69.5 28.5 54-.3 49.8 28.7 46 45.4 30 50-.2c4.4 29.5 21 45.7 49.7 50-29 4.3-45.2 20.6-49.7 50" style="fill-rule:evenodd;clip-rule:evenodd" transform="matrix(.4 0 0 .4 520 680)"/></g><g style="fill:#fff"><path d="M50 99.8C45.8 69.5 28.5 54-.3 49.8 28.7 46 45.4 30 50-.2c4.4 29.5 21 45.7 49.7 50-29 4.3-45.2 20.6-49.7 50" style="fill-rule:evenodd;clip-rule:evenodd" transform="matrix(.4 0 0 .4 560 680)"/></g><g style="fill:#fff"><path d="M50 99.8C45.8 69.5 28.5 54-.3 49.8 28.7 46 45.4 30 50-.2c4.4 29.5 21 45.7 49.7 50-29 4.3-45.2 20.6-49.7 50" style="fill-rule:evenodd;clip-rule:evenodd" transform="matrix(.4 0 0 .4 640 680)"/></g><g style="fill:#fff"><path d="M50 99.8C45.8 69.5 28.5 54-.3 49.8 28.7 46 45.4 30 50-.2c4.4 29.5 21 45.7 49.7 50-29 4.3-45.2 20.6-49.7 50" style="fill-rule:evenodd;clip-rule:evenodd" transform="matrix(.4 0 0 .4 800 680)"/></g><g style="fill:#fff"><path d="M50 99.8C45.8 69.5 28.5 54-.3 49.8 28.7 46 45.4 30 50-.2c4.4 29.5 21 45.7 49.7 50-29 4.3-45.2 20.6-49.7 50" style="fill-rule:evenodd;clip-rule:evenodd" transform="matrix(.4 0 0 .4 880 680)"/></g><g style="fill:#fff"><path d="M50 99.8C45.8 69.5 28.5 54-.3 49.8 28.7 46 45.4 30 50-.2c4.4 29.5 21 45.7 49.7 50-29 4.3-45.2 20.6-49.7 50" style="fill-rule:evenodd;clip-rule:evenodd" transform="matrix(.4 0 0 .4 920 680)"/></g><g style="fill:#fff"><path d="M50 99.8C45.8 69.5 28.5 54-.3 49.8 28.7 46 45.4 30 50-.2c4.4 29.5 21 45.7 49.7 50-29 4.3-45.2 20.6-49.7 50" style="fill-rule:evenodd;clip-rule:evenodd" transform="matrix(.4 0 0 .4 320 720)"/></g><g style="fill:#fff"><path d="M50 99.8C45.8 69.5 28.5 54-.3 49.8 28.7 46 45.4 30 50-.2c4.4 29.5 21 45.7 49.7 50-29 4.3-45.2 20.6-49.7 50" style="fill-rule:evenodd;clip-rule:evenodd" transform="matrix(.4 0 0 .4 360 720)"/></g><g style="fill:#fff"><path d="M50 99.8C45.8 69.5 28.5 54-.3 49.8 28.7 46 45.4 30 50-.2c4.4 29.5 21 45.7 49.7 50-29 4.3-45.2 20.6-49.7 50" style="fill-rule:evenodd;clip-rule:evenodd" transform="matrix(.4 0 0 .4 440 720)"/></g><g style="fill:#fff"><path d="M50 99.8C45.8 69.5 28.5 54-.3 49.8 28.7 46 45.4 30 50-.2c4.4 29.5 21 45.7 49.7 50-29 4.3-45.2 20.6-49.7 50" style="fill-rule:evenodd;clip-rule:evenodd" transform="matrix(.4 0 0 .4 640 720)"/></g><g style="fill:#fff"><path d="M50 99.8C45.8 69.5 28.5 54-.3 49.8 28.7 46 45.4 30 50-.2c4.4 29.5 21 45.7 49.7 50-29 4.3-45.2 20.6-49.7 50" style="fill-rule:evenodd;clip-rule:evenodd" transform="matrix(.4 0 0 .4 720 720)"/></g><g style="fill:#fff"><path d="M50 99.8C45.8 69.5 28.5 54-.3 49.8 28.7 46 45.4 30 50-.2c4.4 29.5 21 45.7 49.7 50-29 4.3-45.2 20.6-49.7 50" style="fill-rule:evenodd;clip-rule:evenodd" transform="matrix(.4 0 0 .4 800 720)"/></g><g style="fill:#fff"><path d="M50 99.8C45.8 69.5 28.5 54-.3 49.8 28.7 46 45.4 30 50-.2c4.4 29.5 21 45.7 49.7 50-29 4.3-45.2 20.6-49.7 50" style="fill-rule:evenodd;clip-rule:evenodd" transform="matrix(.4 0 0 .4 960 720)"/></g><g style="fill:#fff"><path d="M50 99.8C45.8 69.5 28.5 54-.3 49.8 28.7 46 45.4 30 50-.2c4.4 29.5 21 45.7 49.7 50-29 4.3-45.2 20.6-49.7 50" style="fill-rule:evenodd;clip-rule:evenodd" transform="matrix(.4 0 0 .4 320 760)"/></g><g style="fill:#fff"><path d="M50 99.8C45.8 69.5 28.5 54-.3 49.8 28.7 46 45.4 30 50-.2c4.4 29.5 21 45.7 49.7 50-29 4.3-45.2 20.6-49.7 50" style="fill-rule:evenodd;clip-rule:evenodd" transform="matrix(.4 0 0 .4 360 760)"/></g><g style="fill:#fff"><path d="M50 99.8C45.8 69.5 28.5 54-.3 49.8 28.7 46 45.4 30 50-.2c4.4 29.5 21 45.7 49.7 50-29 4.3-45.2 20.6-49.7 50" style="fill-rule:evenodd;clip-rule:evenodd" transform="matrix(.4 0 0 .4 400 760)"/></g><g style="fill:#fff"><path d="M50 99.8C45.8 69.5 28.5 54-.3 49.8 28.7 46 45.4 30 50-.2c4.4 29.5 21 45.7 49.7 50-29 4.3-45.2 20.6-49.7 50" style="fill-rule:evenodd;clip-rule:evenodd" transform="matrix(.4 0 0 .4 480 760)"/></g><g style="fill:#fff"><path d="M50 99.8C45.8 69.5 28.5 54-.3 49.8 28.7 46 45.4 30 50-.2c4.4 29.5 21 45.7 49.7 50-29 4.3-45.2 20.6-49.7 50" style="fill-rule:evenodd;clip-rule:evenodd" transform="matrix(.4 0 0 .4 560 760)"/></g><g style="fill:#fff"><path d="M50 99.8C45.8 69.5 28.5 54-.3 49.8 28.7 46 45.4 30 50-.2c4.4 29.5 21 45.7 49.7 50-29 4.3-45.2 20.6-49.7 50" style="fill-rule:evenodd;clip-rule:evenodd" transform="matrix(.4 0 0 .4 600 760)"/></g><g style="fill:#fff"><path d="M50 99.8C45.8 69.5 28.5 54-.3 49.8 28.7 46 45.4 30 50-.2c4.4 29.5 21 45.7 49.7 50-29 4.3-45.2 20.6-49.7 50" style="fill-rule:evenodd;clip-rule:evenodd" transform="matrix(.4 0 0 .4 640 760)"/></g><g style="fill:#fff"><path d="M50 99.8C45.8 69.5 28.5 54-.3 49.8 28.7 46 45.4 30 50-.2c4.4 29.5 21 45.7 49.7 50-29 4.3-45.2 20.6-49.7 50" style="fill-rule:evenodd;clip-rule:evenodd" transform="matrix(.4 0 0 .4 800 760)"/></g><g style="fill:#fff"><path d="M50 99.8C45.8 69.5 28.5 54-.3 49.8 28.7 46 45.4 30 50-.2c4.4 29.5 21 45.7 49.7 50-29 4.3-45.2 20.6-49.7 50" style="fill-rule:evenodd;clip-rule:evenodd" transform="matrix(.4 0 0 .4 920 760)"/></g><g style="fill:#fff"><path d="M50 99.8C45.8 69.5 28.5 54-.3 49.8 28.7 46 45.4 30 50-.2c4.4 29.5 21 45.7 49.7 50-29 4.3-45.2 20.6-49.7 50" style="fill-rule:evenodd;clip-rule:evenodd" transform="matrix(.4 0 0 .4 320 800)"/></g><g style="fill:#fff"><path d="M50 99.8C45.8 69.5 28.5 54-.3 49.8 28.7 46 45.4 30 50-.2c4.4 29.5 21 45.7 49.7 50-29 4.3-45.2 20.6-49.7 50" style="fill-rule:evenodd;clip-rule:evenodd" transform="matrix(.4 0 0 .4 360 800)"/></g><g style="fill:#fff"><path d="M50 99.8C45.8 69.5 28.5 54-.3 49.8 28.7 46 45.4 30 50-.2c4.4 29.5 21 45.7 49.7 50-29 4.3-45.2 20.6-49.7 50" style="fill-rule:evenodd;clip-rule:evenodd" transform="matrix(.4 0 0 .4 480 800)"/></g><g style="fill:#fff"><path d="M50 99.8C45.8 69.5 28.5 54-.3 49.8 28.7 46 45.4 30 50-.2c4.4 29.5 21 45.7 49.7 50-29 4.3-45.2 20.6-49.7 50" style="fill-rule:evenodd;clip-rule:evenodd" transform="matrix(.4 0 0 .4 520 800)"/></g><g style="fill:#fff"><path d="M50 99.8C45.8 69.5 28.5 54-.3 49.8 28.7 46 45.4 30 50-.2c4.4 29.5 21 45.7 49.7 50-29 4.3-45.2 20.6-49.7 50" style="fill-rule:evenodd;clip-rule:evenodd" transform="matrix(.4 0 0 .4 560 800)"/></g><g style="fill:#fff"><path d="M50 99.8C45.8 69.5 28.5 54-.3 49.8 28.7 46 45.4 30 50-.2c4.4 29.5 21 45.7 49.7 50-29 4.3-45.2 20.6-49.7 50" style="fill-rule:evenodd;clip-rule:evenodd" transform="matrix(.4 0 0 .4 600 800)"/></g><g style="fill:#fff"><path d="M50 99.8C45.8 69.5 28.5 54-.3 49.8 28.7 46 45.4 30 50-.2c4.4 29.5 21 45.7 49.7 50-29 4.3-45.2 20.6-49.7 50" style="fill-rule:evenodd;clip-rule:evenodd" transform="matrix(.4 0 0 .4 640 800)"/></g><g style="fill:#fff"><path d="M50 99.8C45.8 69.5 28.5 54-.3 49.8 28.7 46 45.4 30 50-.2c4.4 29.5 21 45.7 49.7 50-29 4.3-45.2 20.6-49.7 50" style="fill-rule:evenodd;clip-rule:evenodd" transform="matrix(.4 0 0 .4 680 800)"/></g><g style="fill:#fff"><path d="M50 99.8C45.8 69.5 28.5 54-.3 49.8 28.7 46 45.4 30 50-.2c4.4 29.5 21 45.7 49.7 50-29 4.3-45.2 20.6-49.7 50" style="fill-rule:evenodd;clip-rule:evenodd" transform="matrix(.4 0 0 .4 720 800)"/></g><g style="fill:#fff"><path d="M50 99.8C45.8 69.5 28.5 54-.3 49.8 28.7 46 45.4 30 50-.2c4.4 29.5 21 45.7 49.7 50-29 4.3-45.2 20.6-49.7 50" style="fill-rule:evenodd;clip-rule:evenodd" transform="matrix(.4 0 0 .4 760 800)"/></g><g style="fill:#fff"><path d="M50 99.8C45.8 69.5 28.5 54-.3 49.8 28.7 46 45.4 30 50-.2c4.4 29.5 21 45.7 49.7 50-29 4.3-45.2 20.6-49.7 50" style="fill-rule:evenodd;clip-rule:evenodd" transform="matrix(.4 0 0 .4 800 800)"/></g><g style="fill:#fff"><path d="M50 99.8C45.8 69.5 28.5 54-.3 49.8 28.7 46 45.4 30 50-.2c4.4 29.5 21 45.7 49.7 50-29 4.3-45.2 20.6-49.7 50" style="fill-rule:evenodd;clip-rule:evenodd" transform="matrix(.4 0 0 .4 960 800)"/></g><g style="fill:#fff"><path d="M50 99.8C45.8 69.5 28.5 54-.3 49.8 28.7 46 45.4 30 50-.2c4.4 29.5 21 45.7 49.7 50-29 4.3-45.2 20.6-49.7 50" style="fill-rule:evenodd;clip-rule:evenodd" transform="matrix(.4 0 0 .4 320 840)"/></g><g style="fill:#fff"><path d="M50 99.8C45.8 69.5 28.5 54-.3 49.8 28.7 46 45.4 30 50-.2c4.4 29.5 21 45.7 49.7 50-29 4.3-45.2 20.6-49.7 50" style="fill-rule:evenodd;clip-rule:evenodd" transform="matrix(.4 0 0 .4 560 840)"/></g><g style="fill:#fff"><path d="M50 99.8C45.8 69.5 28.5 54-.3 49.8 28.7 46 45.4 30 50-.2c4.4 29.5 21 45.7 49.7 50-29 4.3-45.2 20.6-49.7 50" style="fill-rule:evenodd;clip-rule:evenodd" transform="matrix(.4 0 0 .4 600 840)"/></g><g style="fill:#fff"><path d="M50 99.8C45.8 69.5 28.5 54-.3 49.8 28.7 46 45.4 30 50-.2c4.4 29.5 21 45.7 49.7 50-29 4.3-45.2 20.6-49.7 50" style="fill-rule:evenodd;clip-rule:evenodd" transform="matrix(.4 0 0 .4 720 840)"/></g><g style="fill:#fff"><path d="M50 99.8C45.8 69.5 28.5 54-.3 49.8 28.7 46 45.4 30 50-.2c4.4 29.5 21 45.7 49.7 50-29 4.3-45.2 20.6-49.7 50" style="fill-rule:evenodd;clip-rule:evenodd" transform="matrix(.4 0 0 .4 920 840)"/></g><g style="fill:#fff"><path d="M50 99.8C45.8 69.5 28.5 54-.3 49.8 28.7 46 45.4 30 50-.2c4.4 29.5 21 45.7 49.7 50-29 4.3-45.2 20.6-49.7 50" style="fill-rule:evenodd;clip-rule:evenodd" transform="matrix(.4 0 0 .4 960 840)"/></g><g style="fill:#fff"><path d="M50 99.8C45.8 69.5 28.5 54-.3 49.8 28.7 46 45.4 30 50-.2c4.4 29.5 21 45.7 49.7 50-29 4.3-45.2 20.6-49.7 50" style="fill-rule:evenodd;clip-rule:evenodd" transform="matrix(.4 0 0 .4 360 880)"/></g><g style="fill:#fff"><path d="M50 99.8C45.8 69.5 28.5 54-.3 49.8 28.7 46 45.4 30 50-.2c4.4 29.5 21 45.7 49.7 50-29 4.3-45.2 20.6-49.7 50" style="fill-rule:evenodd;clip-rule:evenodd" transform="matrix(.4 0 0 .4 400 880)"/></g><g style="fill:#fff"><path d="M50 99.8C45.8 69.5 28.5 54-.3 49.8 28.7 46 45.4 30 50-.2c4.4 29.5 21 45.7 49.7 50-29 4.3-45.2 20.6-49.7 50" style="fill-rule:evenodd;clip-rule:evenodd" transform="matrix(.4 0 0 .4 480 880)"/></g><g style="fill:#fff"><path d="M50 99.8C45.8 69.5 28.5 54-.3 49.8 28.7 46 45.4 30 50-.2c4.4 29.5 21 45.7 49.7 50-29 4.3-45.2 20.6-49.7 50" style="fill-rule:evenodd;clip-rule:evenodd" transform="matrix(.4 0 0 .4 560 880)"/></g><g style="fill:#fff"><path d="M50 99.8C45.8 69.5 28.5 54-.3 49.8 28.7 46 45.4 30 50-.2c4.4 29.5 21 45.7 49.7 50-29 4.3-45.2 20.6-49.7 50" style="fill-rule:evenodd;clip-rule:evenodd" transform="matrix(.4 0 0 .4 600 880)"/></g><g style="fill:#fff"><path d="M50 99.8C45.8 69.5 28.5 54-.3 49.8 28.7 46 45.4 30 50-.2c4.4 29.5 21 45.7 49.7 50-29 4.3-45.2 20.6-49.7 50" style="fill-rule:evenodd;clip-rule:evenodd" transform="matrix(.4 0 0 .4 680 880)"/></g><g style="fill:#fff"><path d="M50 99.8C45.8 69.5 28.5 54-.3 49.8 28.7 46 45.4 30 50-.2c4.4 29.5 21 45.7 49.7 50-29 4.3-45.2 20.6-49.7 50" style="fill-rule:evenodd;clip-rule:evenodd" transform="matrix(.4 0 0 .4 800 880)"/></g><g style="fill:#fff"><path d="M50 99.8C45.8 69.5 28.5 54-.3 49.8 28.7 46 45.4 30 50-.2c4.4 29.5 21 45.7 49.7 50-29 4.3-45.2 20.6-49.7 50" style="fill-rule:evenodd;clip-rule:evenodd" transform="matrix(.4 0 0 .4 840 880)"/></g><g style="fill:#fff"><path d="M50 99.8C45.8 69.5 28.5 54-.3 49.8 28.7 46 45.4 30 50-.2c4.4 29.5 21 45.7 49.7 50-29 4.3-45.2 20.6-49.7 50" style="fill-rule:evenodd;clip-rule:evenodd" transform="matrix(.4 0 0 .4 880 880)"/></g><g style="fill:#fff"><path d="M50 99.8C45.8 69.5 28.5 54-.3 49.8 28.7 46 45.4 30 50-.2c4.4 29.5 21 45.7 49.7 50-29 4.3-45.2 20.6-49.7 50" style="fill-rule:evenodd;clip-rule:evenodd" transform="matrix(.4 0 0 .4 920 880)"/></g><g style="fill:#fff"><path d="M50 99.8C45.8 69.5 28.5 54-.3 49.8 28.7 46 45.4 30 50-.2c4.4 29.5 21 45.7 49.7 50-29 4.3-45.2 20.6-49.7 50" style="fill-rule:evenodd;clip-rule:evenodd" transform="matrix(.4 0 0 .4 960 880)"/></g><g style="fill:#fff"><path d="M50 99.8C45.8 69.5 28.5 54-.3 49.8 28.7 46 45.4 30 50-.2c4.4 29.5 21 45.7 49.7 50-29 4.3-45.2 20.6-49.7 50" style="fill-rule:evenodd;clip-rule:evenodd" transform="matrix(.4 0 0 .4 360 920)"/></g><g style="fill:#fff"><path d="M50 99.8C45.8 69.5 28.5 54-.3 49.8 28.7 46 45.4 30 50-.2c4.4 29.5 21 45.7 49.7 50-29 4.3-45.2 20.6-49.7 50" style="fill-rule:evenodd;clip-rule:evenodd" transform="matrix(.4 0 0 .4 400 920)"/></g><g style="fill:#fff"><path d="M50 99.8C45.8 69.5 28.5 54-.3 49.8 28.7 46 45.4 30 50-.2c4.4 29.5 21 45.7 49.7 50-29 4.3-45.2 20.6-49.7 50" style="fill-rule:evenodd;clip-rule:evenodd" transform="matrix(.4 0 0 .4 560 920)"/></g><g style="fill:#fff"><path d="M50 99.8C45.8 69.5 28.5 54-.3 49.8 28.7 46 45.4 30 50-.2c4.4 29.5 21 45.7 49.7 50-29 4.3-45.2 20.6-49.7 50" style="fill-rule:evenodd;clip-rule:evenodd" transform="matrix(.4 0 0 .4 600 920)"/></g><g style="fill:#fff"><path d="M50 99.8C45.8 69.5 28.5 54-.3 49.8 28.7 46 45.4 30 50-.2c4.4 29.5 21 45.7 49.7 50-29 4.3-45.2 20.6-49.7 50" style="fill-rule:evenodd;clip-rule:evenodd" transform="matrix(.4 0 0 .4 760 920)"/></g><g style="fill:#fff"><path d="M50 99.8C45.8 69.5 28.5 54-.3 49.8 28.7 46 45.4 30 50-.2c4.4 29.5 21 45.7 49.7 50-29 4.3-45.2 20.6-49.7 50" style="fill-rule:evenodd;clip-rule:evenodd" transform="matrix(.4 0 0 .4 800 920)"/></g><g style="fill:#fff"><path d="M50 99.8C45.8 69.5 28.5 54-.3 49.8 28.7 46 45.4 30 50-.2c4.4 29.5 21 45.7 49.7 50-29 4.3-45.2 20.6-49.7 50" style="fill-rule:evenodd;clip-rule:evenodd" transform="matrix(.4 0 0 .4 880 920)"/></g><g style="fill:#fff"><path d="M50 99.8C45.8 69.5 28.5 54-.3 49.8 28.7 46 45.4 30 50-.2c4.4 29.5 21 45.7 49.7 50-29 4.3-45.2 20.6-49.7 50" style="fill-rule:evenodd;clip-rule:evenodd" transform="matrix(.4 0 0 .4 920 920)"/></g><g style="fill:#fff"><path d="M50 99.8C45.8 69.5 28.5 54-.3 49.8 28.7 46 45.4 30 50-.2c4.4 29.5 21 45.7 49.7 50-29 4.3-45.2 20.6-49.7 50" style="fill-rule:evenodd;clip-rule:evenodd" transform="matrix(.4 0 0 .4 960 920)"/></g><g style="fill:#fff"><path d="M50 99.8C45.8 69.5 28.5 54-.3 49.8 28.7 46 45.4 30 50-.2c4.4 29.5 21 45.7 49.7 50-29 4.3-45.2 20.6-49.7 50" style="fill-rule:evenodd;clip-rule:evenodd" transform="matrix(.4 0 0 .4 320 960)"/></g><g style="fill:#fff"><path d="M50 99.8C45.8 69.5 28.5 54-.3 49.8 28.7 46 45.4 30 50-.2c4.4 29.5 21 45.7 49.7 50-29 4.3-45.2 20.6-49.7 50" style="fill-rule:evenodd;clip-rule:evenodd" transform="matrix(.4 0 0 .4 360 960)"/></g><g style="fill:#fff"><path d="M50 99.8C45.8 69.5 28.5 54-.3 49.8 28.7 46 45.4 30 50-.2c4.4 29.5 21 45.7 49.7 50-29 4.3-45.2 20.6-49.7 50" style="fill-rule:evenodd;clip-rule:evenodd" transform="matrix(.4 0 0 .4 400 960)"/></g><g style="fill:#fff"><path d="M50 99.8C45.8 69.5 28.5 54-.3 49.8 28.7 46 45.4 30 50-.2c4.4 29.5 21 45.7 49.7 50-29 4.3-45.2 20.6-49.7 50" style="fill-rule:evenodd;clip-rule:evenodd" transform="matrix(.4 0 0 .4 520 960)"/></g><g style="fill:#fff"><path d="M50 99.8C45.8 69.5 28.5 54-.3 49.8 28.7 46 45.4 30 50-.2c4.4 29.5 21 45.7 49.7 50-29 4.3-45.2 20.6-49.7 50" style="fill-rule:evenodd;clip-rule:evenodd" transform="matrix(.4 0 0 .4 560 960)"/></g><g style="fill:#fff"><path d="M50 99.8C45.8 69.5 28.5 54-.3 49.8 28.7 46 45.4 30 50-.2c4.4 29.5 21 45.7 49.7 50-29 4.3-45.2 20.6-49.7 50" style="fill-rule:evenodd;clip-rule:evenodd" transform="matrix(.4 0 0 .4 640 960)"/></g><g style="fill:#fff"><path d="M50 99.8C45.8 69.5 28.5 54-.3 49.8 28.7 46 45.4 30 50-.2c4.4 29.5 21 45.7 49.7 50-29 4.3-45.2 20.6-49.7 50" style="fill-rule:evenodd;clip-rule:evenodd" transform="matrix(.4 0 0 .4 680 960)"/></g><g style="fill:#fff"><path d="M50 99.8C45.8 69.5 28.5 54-.3 49.8 28.7 46 45.4 30 50-.2c4.4 29.5 21 45.7 49.7 50-29 4.3-45.2 20.6-49.7 50" style="fill-rule:evenodd;clip-rule:evenodd" transform="matrix(.4 0 0 .4 840 960)"/></g><g style="fill:#fff"><path d="M50 99.8C45.8 69.5 28.5 54-.3 49.8 28.7 46 45.4 30 50-.2c4.4 29.5 21 45.7 49.7 50-29 4.3-45.2 20.6-49.7 50" style="fill-rule:evenodd;clip-rule:evenodd" transform="matrix(.4 0 0 .4 960 960)"/></g></mask></defs><path fill="url(#grad)" d="M0 0h1000v1000H0z" mask="url(#gmask)" transform="translate(80 80)"/><g style="fill:#efb400"><path d="M90 71.3c-2.9-1-5-3.8-5-7.1s2.1-6.1 5-7.1a7.5 7.5 0 0 1 0-14.2 7.5 7.5 0 0 1 0-14.1c-2.9-1-5-3.8-5-7.1s2.1-6.1 5-7.1a8 8 0 0 1-4.6-4.7 7.5 7.5 0 0 1-14.2 0 7.5 7.5 0 0 1-14.1 0 7.5 7.5 0 0 1-14.2 0c-1 3-3.8 5.1-7 5.1s-6.1-2.1-7.1-5c-1 2.9-3.8 5-7.1 5s-6.1-2.1-7.1-5a8 8 0 0 1-4.7 4.6c3 1 5.1 3.8 5.1 7s-2.1 6.1-5 7.1A7.6 7.6 0 0 1 10 43a7.5 7.5 0 0 1 0 14.1c2.9 1.1 5 3.9 5 7.2s-2.1 6-5 7a7.5 7.5 0 0 1 0 14.2q3.3 1.3 4.6 4.7c1-3 3.8-5.1 7-5.1s6.1 2.1 7.2 5a7.5 7.5 0 0 1 14.1 0 7.5 7.5 0 0 1 14.1 0 7.5 7.5 0 0 1 14.3 0 7.5 7.5 0 0 1 14.1 0 8 8 0 0 1 4.7-4.6 7.5 7.5 0 0 1 0-14.2" style="fill:none" transform="translate(80 80)scale(2.77228)"/><path d="M357.2 140c0-9-5.8-16.8-14-19.6A20.8 20.8 0 1 0 316.8 94a20.8 20.8 0 0 0-39.3 0 20.8 20.8 0 0 0-39.3 0 20.8 20.8 0 0 0-39.2 0 20.8 20.8 0 0 0-39.3 0 20.8 20.8 0 0 0-39.3 0A20.8 20.8 0 1 0 94 120.4a20.8 20.8 0 0 0 0 39.3 20.8 20.8 0 0 0 0 39.3 20.8 20.8 0 0 0 0 39.2 20.8 20.8 0 0 0 0 39.3 20.8 20.8 0 0 0 0 39.3 20.8 20.8 0 1 0 26.4 26.4 20.8 20.8 0 0 0 39.3 0 20.8 20.8 0 0 0 39.3 0 20.8 20.8 0 0 0 39.2 0 20.8 20.8 0 0 0 39.3 0 20.8 20.8 0 0 0 39.3 0 20.8 20.8 0 1 0 26.4-26.4 20.8 20.8 0 0 0 0-39.3 20.8 20.8 0 0 0 0-39.3 20.8 20.8 0 0 0 0-39.2 20.8 20.8 0 0 0 0-39.3c8.2-2.8 14-10.5 14-19.6m-27.6 176.8c-6 2-10.7 6.8-12.8 12.8a20.8 20.8 0 0 0-39.3 0 20.8 20.8 0 0 0-39.3 0 20.8 20.8 0 0 0-39.2 0 20.8 20.8 0 0 0-39.3 0 20.8 20.8 0 0 0-39.3 0c-2-6-6.8-10.7-12.8-12.8a20.8 20.8 0 0 0 0-39.3 20.8 20.8 0 0 0 0-39.3 20.8 20.8 0 0 0 0-39.2 20.8 20.8 0 0 0 0-39.3 20.8 20.8 0 0 0 0-39.3c6-2 10.7-6.8 12.8-12.8a20.8 20.8 0 0 0 39.3 0 20.8 20.8 0 0 0 39.3 0 20.8 20.8 0 0 0 39.2 0 20.8 20.8 0 0 0 39.3 0 20.8 20.8 0 0 0 39.3 0c2 6 6.8 10.8 12.9 12.8a20.8 20.8 0 0 0 0 39.3 20.8 20.8 0 0 0 0 39.3 20.8 20.8 0 0 0 0 39.2 20.8 20.8 0 0 0 0 39.3 20.8 20.8 0 0 0 0 39.3"/></g><g style="fill:#efb400"><path d="M90 71.3c-2.9-1-5-3.8-5-7.1s2.1-6.1 5-7.1a7.5 7.5 0 0 1 0-14.2 7.5 7.5 0 0 1 0-14.1c-2.9-1-5-3.8-5-7.1s2.1-6.1 5-7.1a8 8 0 0 1-4.6-4.7 7.5 7.5 0 0 1-14.2 0 7.5 7.5 0 0 1-14.1 0 7.5 7.5 0 0 1-14.2 0c-1 3-3.8 5.1-7 5.1s-6.1-2.1-7.1-5c-1 2.9-3.8 5-7.1 5s-6.1-2.1-7.1-5a8 8 0 0 1-4.7 4.6c3 1 5.1 3.8 5.1 7s-2.1 6.1-5 7.1A7.6 7.6 0 0 1 10 43a7.5 7.5 0 0 1 0 14.1c2.9 1.1 5 3.9 5 7.2s-2.1 6-5 7a7.5 7.5 0 0 1 0 14.2q3.3 1.3 4.6 4.7c1-3 3.8-5.1 7-5.1s6.1 2.1 7.2 5a7.5 7.5 0 0 1 14.1 0 7.5 7.5 0 0 1 14.1 0 7.5 7.5 0 0 1 14.3 0 7.5 7.5 0 0 1 14.1 0 8 8 0 0 1 4.7-4.6 7.5 7.5 0 0 1 0-14.2" style="fill:none" transform="translate(800 80)scale(2.77228)"/><path d="M1077.2 140c0-9-5.8-16.8-14-19.6a20.8 20.8 0 1 0-26.4-26.4 20.8 20.8 0 0 0-39.3 0 20.8 20.8 0 0 0-39.3 0 20.8 20.8 0 0 0-39.2 0 20.8 20.8 0 0 0-39.3 0 20.8 20.8 0 0 0-39.3 0 20.8 20.8 0 1 0-26.4 26.4 20.8 20.8 0 0 0 0 39.3 20.8 20.8 0 0 0 0 39.3 20.8 20.8 0 0 0 0 39.2 20.8 20.8 0 0 0 0 39.3 20.8 20.8 0 0 0 0 39.3 20.8 20.8 0 1 0 26.4 26.4 20.8 20.8 0 0 0 39.3 0 20.8 20.8 0 0 0 39.3 0 20.8 20.8 0 0 0 39.2 0 20.8 20.8 0 0 0 39.3 0 20.8 20.8 0 0 0 39.3 0 20.8 20.8 0 1 0 26.4-26.4 20.8 20.8 0 0 0 0-39.3 20.8 20.8 0 0 0 0-39.3 20.8 20.8 0 0 0 0-39.2 20.8 20.8 0 0 0 0-39.3c8.2-2.8 14-10.5 14-19.6m-27.6 176.8c-6 2-10.7 6.8-12.8 12.8a20.8 20.8 0 0 0-39.3 0 20.8 20.8 0 0 0-39.3 0 20.8 20.8 0 0 0-39.2 0 20.8 20.8 0 0 0-39.3 0 20.8 20.8 0 0 0-39.3 0c-2-6-6.8-10.7-12.8-12.8a20.8 20.8 0 0 0 0-39.3 20.8 20.8 0 0 0 0-39.3 20.8 20.8 0 0 0 0-39.2 20.8 20.8 0 0 0 0-39.3 20.8 20.8 0 0 0 0-39.3c6-2 10.7-6.8 12.8-12.8a20.8 20.8 0 0 0 39.3 0 20.8 20.8 0 0 0 39.3 0 20.8 20.8 0 0 0 39.2 0 20.8 20.8 0 0 0 39.3 0 20.8 20.8 0 0 0 39.3 0c2 6 6.8 10.8 12.9 12.8a20.8 20.8 0 0 0 0 39.3 20.8 20.8 0 0 0 0 39.3 20.8 20.8 0 0 0 0 39.2 20.8 20.8 0 0 0 0 39.3 20.8 20.8 0 0 0 0 39.3"/></g><g style="fill:#efb400"><path d="M90 71.3c-2.9-1-5-3.8-5-7.1s2.1-6.1 5-7.1a7.5 7.5 0 0 1 0-14.2 7.5 7.5 0 0 1 0-14.1c-2.9-1-5-3.8-5-7.1s2.1-6.1 5-7.1a8 8 0 0 1-4.6-4.7 7.5 7.5 0 0 1-14.2 0 7.5 7.5 0 0 1-14.1 0 7.5 7.5 0 0 1-14.2 0c-1 3-3.8 5.1-7 5.1s-6.1-2.1-7.1-5c-1 2.9-3.8 5-7.1 5s-6.1-2.1-7.1-5a8 8 0 0 1-4.7 4.6c3 1 5.1 3.8 5.1 7s-2.1 6.1-5 7.1A7.6 7.6 0 0 1 10 43a7.5 7.5 0 0 1 0 14.1c2.9 1.1 5 3.9 5 7.2s-2.1 6-5 7a7.5 7.5 0 0 1 0 14.2q3.3 1.3 4.6 4.7c1-3 3.8-5.1 7-5.1s6.1 2.1 7.2 5a7.5 7.5 0 0 1 14.1 0 7.5 7.5 0 0 1 14.1 0 7.5 7.5 0 0 1 14.3 0 7.5 7.5 0 0 1 14.1 0 8 8 0 0 1 4.7-4.6 7.5 7.5 0 0 1 0-14.2" style="fill:none" transform="translate(80 800)scale(2.77228)"/><path d="M357.2 860c0-9-5.8-16.8-14-19.6a20.8 20.8 0 1 0-26.4-26.4 20.8 20.8 0 0 0-39.3 0 20.8 20.8 0 0 0-39.3 0 20.8 20.8 0 0 0-39.2 0 20.8 20.8 0 0 0-39.3 0 20.8 20.8 0 0 0-39.3 0A20.8 20.8 0 1 0 94 840.4a20.8 20.8 0 0 0 0 39.3 20.8 20.8 0 0 0 0 39.3 20.8 20.8 0 0 0 0 39.2 20.8 20.8 0 0 0 0 39.3 20.8 20.8 0 0 0 0 39.3 20.8 20.8 0 1 0 26.4 26.4 20.8 20.8 0 0 0 39.3 0 20.8 20.8 0 0 0 39.3 0 20.8 20.8 0 0 0 39.2 0 20.8 20.8 0 0 0 39.3 0 20.8 20.8 0 0 0 39.3 0 20.8 20.8 0 1 0 26.4-26.4 20.8 20.8 0 0 0 0-39.3 20.8 20.8 0 0 0 0-39.3 20.8 20.8 0 0 0 0-39.2 20.8 20.8 0 0 0 0-39.3c8.2-2.8 14-10.5 14-19.6m-27.6 176.8c-6 2-10.7 6.8-12.8 12.8a20.8 20.8 0 0 0-39.3 0 20.8 20.8 0 0 0-39.3 0 20.8 20.8 0 0 0-39.2 0 20.8 20.8 0 0 0-39.3 0 20.8 20.8 0 0 0-39.3 0c-2-6-6.8-10.7-12.8-12.8a20.8 20.8 0 0 0 0-39.3 20.8 20.8 0 0 0 0-39.3 20.8 20.8 0 0 0 0-39.2 20.8 20.8 0 0 0 0-39.3 20.8 20.8 0 0 0 0-39.3c6-2 10.7-6.8 12.8-12.8a20.8 20.8 0 0 0 39.3 0 20.8 20.8 0 0 0 39.3 0 20.8 20.8 0 0 0 39.2 0 20.8 20.8 0 0 0 39.3 0 20.8 20.8 0 0 0 39.3 0c2 6 6.8 10.8 12.9 12.8a20.8 20.8 0 0 0 0 39.3 20.8 20.8 0 0 0 0 39.3 20.8 20.8 0 0 0 0 39.2 20.8 20.8 0 0 0 0 39.3 20.8 20.8 0 0 0 0 39.3"/></g><g style="fill:#ffea8a" transform="matrix(1.2 0 0 1.2 160 160)"><circle cx="17.3" cy="17.3" r="16.8"/><circle cx="50" cy="17.3" r="16.8"/><circle cx="82.7" cy="17.3" r="16.8"/><circle cx="17.3" cy="82.7" r="16.8"/><circle cx="50" cy="82.7" r="16.8"/><circle cx="82.7" cy="82.7" r="16.8"/><circle cx="17.3" cy="50" r="16.8"/><circle cx="50" cy="50" r="16.8"/><circle cx="82.7" cy="50" r="16.8"/></g><g style="fill:#ffea8a" transform="matrix(1.2 0 0 1.2 880 160)"><circle cx="17.3" cy="17.3" r="16.8"/><circle cx="50" cy="17.3" r="16.8"/><circle cx="82.7" cy="17.3" r="16.8"/><circle cx="17.3" cy="82.7" r="16.8"/><circle cx="50" cy="82.7" r="16.8"/><circle cx="82.7" cy="82.7" r="16.8"/><circle cx="17.3" cy="50" r="16.8"/><circle cx="50" cy="50" r="16.8"/><circle cx="82.7" cy="50" r="16.8"/></g><g style="fill:#ffea8a" transform="matrix(1.2 0 0 1.2 160 880)"><circle cx="17.3" cy="17.3" r="16.8"/><circle cx="50" cy="17.3" r="16.8"/><circle cx="82.7" cy="17.3" r="16.8"/><circle cx="17.3" cy="82.7" r="16.8"/><circle cx="50" cy="82.7" r="16.8"/><circle cx="82.7" cy="82.7" r="16.8"/><circle cx="17.3" cy="50" r="16.8"/><circle cx="50" cy="50" r="16.8"/><circle cx="82.7" cy="50" r="16.8"/></g></svg>